<?xml version="1.0" encoding="utf-8"?>
<?xml-stylesheet type="text/css" href="../css/beemap.css"?>
<!DOCTYPE svg PUBLIC "-//W3C//DTD SVG 1.1//EN" "http://www.w3.org/Graphics/SVG/1.1/DTD/svg11.dtd">
<svg version="1.1" xmlns="http://www.w3.org/2000/svg" xmlns:xlink="http://www.w3.org/1999/xlink" viewBox="0 0 1710 940">
  <defs>
    <polygon id="smallHexagon" fill="white" stroke-width="4" points="186,89 141,2 50,2 5,89 50,167 141,167"/>
    <polygon id="largeHexagon" fill="white" stroke-width="18" points="372,182 281,9 101,9 10,182 101,337 281,337"/>
  </defs>
  <path class="beepath north-west" d="M 190 346 C 300 100 1000 -400 1566 929"/>
  <text class="question" x="1620" y="760">
    <tspan>PATIENT:</tspan>
    <tspan x="1620" dy="25">"How often should</tspan>
    <tspan x="1620" dy="25">I get a flu vaccine?"</tspan>
  </text>
  <text class="question" x="1380" y="820">
    <tspan>PATIENT:</tspan>
    <tspan x="1380" dy="25">"Should I get a PSA test as</tspan>
    <tspan x="1380" dy="25">part of my routine checkup?"</tspan>
  </text>
  <path class="beepath north-west" d="M 730 270 Q 930 240 1104 345"/>
  <path class="beepath north-west-alt" d="M 370 530 Q 900 320 1400 677"/>
  <line class="dashed" x1="1410" y1="89" x2="980" y2="89"/>
  <line class="dashed" x1="1410" y1="89" x2="1210" y2="271"/>
  <line class="dashed" x1="1410" y1="89" x2="1410" y2="540"/>
  <use class="north-west" xlink:href="#smallHexagon" x="1319" y="536"/>
  <text class="north-west-cell" x="1415" y="610">
    <tspan x="1415">Dx</tspan>
    <tspan x="1415" dy="36">Dialog</tspan>
  </text>
  <text x="1500" y="560">
    <tspan x="1500" class="subheading">• Clinical experience</tspan>
    <tspan x="1500" dy="20" class="subheading">• Best evidence</tspan>
    <tspan x="1500" dy="20" class="subheading">• Patient values</tspan>
  </text>
  <use class="north-west" xlink:href="#smallHexagon" x="1090" y="250"/>
  <text class="north-west-cell" x="1185" y="340">
    <tspan>Discover</tspan>
  </text>
  <use class="north-west" xlink:href="#smallHexagon" x="801" y="0"/>
  <text class="north-west-cell" x="895" y="90">
    <tspan>Discuss</tspan>
  </text>
  <use class="north-west" xlink:href="#smallHexagon" x="569" y="225"/>
  <text class="north-west-cell" x="664" y="300">
    <tspan>Consult</tspan>
    <tspan x="664" dy="36">Resources</tspan>
  </text>
  <text x="780" y="320">
    <tspan class="subheading">• <a xlink:href="https://medlineplus.gov">MedlinePlus</a></tspan>
    <tspan x="780" dy="20" class="subheading">• <a xlink:href="https://www.cdc.gov">CDC</a></tspan>
    <tspan x="780" dy="20" class="subheading">• <a xlink:href="https://clinicaltrials.gov">ClinicalTrials.gov</a></tspan>
    <tspan x="780" dy="20" class="subheading">• <a xlink:href="http://healthlibrary.stanford.edu/">Stanford Health Library</a></tspan>
    <tspan x="780" dy="20" class="subheading">• Patient handouts</tspan>
  </text>
  <use class="north-west" xlink:href="#smallHexagon" x="390" y="20"/>
  <text x="487" y="100">
    <tspan class="north-west-cell">Do</tspan>
    <tspan x="487" dy="25" class="subheading" style="text-anchor:middle">implement action</tspan>
    <tspan x="487" dy="16" class="subheading" style="text-anchor:middle">plan/next steps</tspan>
  </text>
  <use class="north-west" xlink:href="#largeHexagon" x="0" y="343"/>
  <text x="100" y="440">
    <tspan class="heading">PATIENT EDUCATION</tspan>
    <tspan class="subheading" x="100" dy="25">Information developed for</tspan>
    <tspan class="subheading" x="100" dy="18">a non-medical audience.</tspan>
  </text>
  <image x="110" y="475" height="198" width="153" xlink:href="../png/people-patiented-l.png"/>
  <ellipse cx="1410" cy="88" rx="120" ry="65"/>
  <text class="subheading" x="1340" y="50">
    <tspan>• Indvidualized</tspan>
    <tspan x="1340" dy="16">• Relatable</tspan>
    <tspan x="1340" dy="16">• Plain language</tspan>
    <tspan x="1340" dy="16">• Contextually related</tspan>
    <tspan x="1340" dy="16">• Double check</tspan>
    <tspan x="1340" dy="16">• <a xlink:href="https://www.ahrq.gov/cahps/quality-improvement/improvement-guide/6-strategies-for-improving/communication/strategy6i-shared-decisionmaking.html">Frameworks may help</a></tspan>
  </text>
  <text x="880" y="555"  stroke="#333" fill="#333">REPEAT AS NECESSARY</text>
</svg>
