<!DOCTYPE svg PUBLIC "-//W3C//DTD SVG 1.1//EN" "http://www.w3.org/Graphics/SVG/1.1/DTD/svg11.dtd">
<svg version="1.1" xmlns="http://www.w3.org/2000/svg" xmlns:xlink="http://www.w3.org/1999/xlink" width="1888" height="1279">
  <defs>
    <style type="text/css">
      .south-west {stroke:rgb(97,120,147);fill:white}
      path {fill:none}
      text {font-family:sans-serif}
      .heading {font-size:20px;stroke:rgb(153,0,36);fill:rgb(153,0,36)}
      .subheading {font-size:16px;stroke:rgb(52,52,54);fill:rgb(52,52,54);font-weight:100}
    </style>
    <polygon id="smallHexagon" stroke-width="4" points="186,89 141,2 50,2 5,89 50,167 141,167"/>
    <polygon id="largeHexagon" stroke-width="18" points="372,182 281,9 101,9 10,182 101,337 281,337"/>
  </defs>
  <path class="south-west" stroke-width="9" d="M 200 940 c 100 -200 500 -500 780 -630"></path>
  <use class="south-west" xlink:href="#largeHexagon" x="0" y="933"/>
  <text x="78" y="1040">
    <tspan class="heading">KNOWLEDGE BUILDING</tspan>
    <tspan class="subheading" x="78" dy="25">Building is a process of gathering</tspan>
    <tspan class="subheading" x="78" dy="18">existing knowledge for your</tspan>
    <tspan class="subheading" x="78" dy="18">information foundation.</tspan>
  </text>
  <image x="80" y="1084" height="214" width="190" xlink:href="../png/people-knowledge-building-l.png"/>
  <use class="south-west" xlink:href="#smallHexagon" x="280" y="630"/>
  <text text-anchor="middle" x="376" y="700">
    <tspan style="font-size:29px;fill:rgb(97,120,147);stroke:rgb(97,120,147)">Consult</tspan>
    <tspan x="376" dy="36" style="font-size:29px;fill:rgb(97,120,147);stroke:rgb(97,120,147)">Resources</tspan>
  </text>
  <path stroke-dasharray="20, 10" stroke="rgb(131,157,161)" stroke-width="4" d="M 960 80 c -300 200 -50 200 0 250"/>
  <ellipse cx="660" cy="500" rx="100" ry="50" stroke="rgb(200,200,200)" stroke-width="1" fill="white"/>
  <text x="636" y="490" font-size="10">
    <tspan x="636">• Simple</tspan>
    <tspan x="636" dy="11">• General</tspan>
    <tspan x="636" dy="11">• Topical</tspan>
  </text>
  <circle cx="950" cy="316" r="50" stroke="rgb(200,200,200)" stroke-width="1" fill="white"/>
  <text x="950" y="310" text-anchor="middle">
    <tspan x="950" font-weight="900" stroke="rgb(97,120,147)">?</tspan>
    <tspan x="950" dy="20" font-size="10">My question is . . .</tspan>
  </text>
  <ellipse cx="860" cy="150" rx="100" ry="50" stroke="rgb(200,200,200)" stroke-width="1" fill="white"/>
  <text x="810" y="144" font-size="10">
    <tspan x="810">• Complex</tspan>
    <tspan x="810" dy="11" >• Potentially answerable</tspan>
    <tspan x="810" dy="11" >• Patient-centered</tspan>
  </text>
  <text x="1100" y="350" text-anchor="middle" font-size="20" font-weight="900">
    <tspan>I NEED</tspan>
    <tspan x="1100" dy="24">FOUNDATIONAL</tspan>
    <tspan x="1100" dy="24">INFORMATION</tspan>
  </text>
  <text x="830" y="240" stroke="rgb(97,120,147)">...OTHER</text>
  <text x="670" y="380" stroke="rgb(97,120,147)">...BACKGROUND</text>
  <text x="1040" y="20" text-anchor="middle" class="subheading">
    <tspan x="1040">read</tspan>
    <tspan x="1040" dy="20">the "Clinical Decision"</tspan>
    <tspan x="1040" dy="20">section</tspan>
  </text>
  <text x="870" y="480" stroke="rgb(131,157,161)" text-anchor="middle" font-style="italic" font-size="20">
    <tspan>"Is there a guideline for</tspan>
    <tspan x="870" dy="25">treating asthma?"</tspan>
  </text>
  <text x="440" y="450" stroke="rgb(131,157,161)" text-anchor="middle" font-style="italic" font-size="20">
    <tspan>"What is the pathophysiology of</tspan>
    <tspan x="440" dy="25">necrotizing enterocolitis?"</tspan>
  </text>
  <text x="710" y="590" stroke="rgb(131,157,161)" text-anchor="middle" font-style="italic" font-size="20">
    <tspan>"What is the Krebs Cycle?"</tspan>
  </text>
  <text x="230" y="580">
    <tspan x="230" font-weight="900">Guidelines/Policies</tspan>
    <tspan x="230" dy="20" class="subheading">• NGC</tspan>
    <tspan x="230" dy="20" class="subheading">• AHRQ</tspan>
    <tspan x="230" dy="20" class="subheading">• NICE</tspan>
    <tspan x="230" dy="20" class="subheading">• HTAs</tspan>
  </text>
  <text x="120" y="640">
    <tspan x="120" font-weight="900">Anatomy</tspan>
    <tspan x="120" dy="20" class="subheading">• Anatomy.tv</tspan>
    <tspan x="120" dy="20" class="subheading">• e-Anatomy</tspan>
    <tspan x="120" dy="20" class="subheading">• Anatomy tools</tspan>
    <tspan x="120" dy="20" class="subheading">• Books</tspan>
  </text>
  <text x="460" y="780">
    <tspan x="460" font-weight="900">Basic &amp; Clinical Sciences</tspan>
    <tspan x="460" dy="20" class="subheading">• Drug databases</tspan>
    <tspan x="460" dy="20" class="subheading">• Textbooks (Harrison's, StatRef)</tspan>
    <tspan x="460" dy="20" class="subheading">• ScienceDirect</tspan>
    <tspan x="460" dy="20" class="subheading">• Review Articles</tspan>
  </text>
  <image x="980" y="160" height="214" width="165" xlink:href="../png/beeSW-l.png"/>
</svg>
