<!DOCTYPE svg PUBLIC "-//W3C//DTD SVG 1.1//EN" "http://www.w3.org/Graphics/SVG/1.1/DTD/svg11.dtd">
<svg version="1.1" xmlns="http://www.w3.org/2000/svg" xmlns:xlink="http://www.w3.org/1999/xlink" width="1676" height="1079">
  <defs>
    <style type="text/css">
      .patient {stroke:rgb(33,134,124)}
      .start {stroke-width:18}
      .step {stroke-width:4}
      polygon {fill:white}
      #largeHexagon {height:348px;width:382px}
      path {stroke-width:9;fill:none}
      text {font-family:sans-serif}
      .heading {font-size:20px;stroke:rgb(153,0,36);fill:rgb(153,0,36)}
      .subheading {font-size:16px;stroke:rgb(52,52,54);fill:rgb(52,52,54);font-weight:100}
    </style>
    <polygon id="largeHexagon" points="372,182 281,9 101,9 10,182 101,337 281,337"/>
    <polygon id="smallHexagon" points="186,89 141,2 50,2 5,89 50,167 141,167"/>
    <path id="path" d="M 24 60 C 536 -536 1071 -179 1429 625"/>
  </defs>
  <use class="patient" xlink:href="#path" x="140" y="286"/>
  <path d="M 737 280 Q 954 226 1104 330" class="patient"/>
  <use class="patient start" xlink:href="#largeHexagon" x="0" y="343"/>
  <text x="87" y="447">
    <tspan class="heading">PATIENT EDUCATION</tspan>
    <tspan class="subheading" x="87" dy="25">Information developed by you</tspan>
    <tspan class="subheading" x="87" dy="18">for a non-medical audience.</tspan>
  </text>
  <image x="87" y="475" height="214" width="190" xlink:href="../png/people-patiented-l.png"/>
  <use class="patient step" xlink:href="#smallHexagon" x="390" y="0"/>
  <text text-anchor="middle" x="487" y="100">
    <tspan style="font-size:29px;fill:rgb(33,134,124);stroke:rgb(33,134,124)">Do</tspan>
    <tspan x="487" dy="25" style="font-size:10px;font-weight:100;stroke:rgb(109,111,114);fill:rgb(109,111,114)">implement action</tspan>
    <tspan x="487" dy="11" style="font-size:10px;font-weight:100;stroke:rgb(109,111,114);fill:rgb(109,111,114)">plan/next steps</tspan>
  </text>
  <use class="patient step" xlink:href="#smallHexagon" x="801" y="0"/>
  <text text-anchor="middle" x="898" y="97">
    <tspan style="font-size:29px;fill:rgb(33,134,124);stroke:rgb(33,134,124)">Discuss</tspan>
  </text>
  <use class="patient step" xlink:href="#smallHexagon" x="1090" y="250"/>
  <text text-anchor="middle" x="1187" y="347">
    <tspan style="font-size:29px;fill:rgb(33,134,124);stroke:rgb(33,134,124)">Discover</tspan>
  </text>
  <use class="patient step" xlink:href="#smallHexagon" x="1319" y="536"/>
  <text text-anchor="middle" x="1415" y="632">
    <tspan x="1415" dy="-14" style="font-size:29px;fill:rgb(33,134,124);stroke:rgb(33,134,124)">Dx</tspan>
    <tspan x="1415" dy="36" style="font-size:29px;fill:rgb(33,134,124);stroke:rgb(33,134,124)">Dialog</tspan>
  </text>
  <use class="patient step" xlink:href="#smallHexagon" x="569" y="225"/>
  <text text-anchor="middle" x="569" y="304">
    <tspan x="658" dy="-14" style="font-size:29px;fill:rgb(33,134,124);stroke:rgb(33,134,124)">Consult</tspan>
    <tspan x="658" dy="36" style="font-size:29px;fill:rgb(33,134,124);stroke:rgb(33,134,124)">Resources</tspan>
  </text>
  <image x="1533" y="929" height="214" width="165" xlink:href="../png/beeNW-l.png"/>
</svg>
