<!DOCTYPE svg PUBLIC "-//W3C//DTD SVG 1.1//EN" "http://www.w3.org/Graphics/SVG/1.1/DTD/svg11.dtd">
<svg version="1.1" xmlns="http://www.w3.org/2000/svg" xmlns:xlink="http://www.w3.org/1999/xlink"
    viewBox="-365 -365 730 730">
    <defs>
        <style type="text/css">
            polygon {
                fill: rgb(165,0,33);
            }
            text {
                fill: #333;
                font-family: sans-serif;
                font-size: 20;
                font-weight: 900;
                stroke: #333;
                text-anchor: middle;
            }
        </style>
        <polygon id="large-pointer" points="-65,0 65,0 0,-300" stroke="white" stroke-width="25"/>
        <polygon id="small-pointer" points="-35,0 35,0 0,-132"/>
    </defs>
    <circle cx="0" cy="0" r="160" stroke="rgb(165,0,33)" stroke-width="55" fill="none"/>
    <use xlink:href="#small-pointer" transform="rotate(9, 0, 0)"/>
    <use xlink:href="#small-pointer" transform="rotate(99, 0, 0)"/>
    <use xlink:href="#small-pointer" transform="rotate(189, 0, 0)"/>
    <use xlink:href="#small-pointer" transform="rotate(279, 0, 0)"/>
    <use xlink:href="#large-pointer" transform="rotate(56, 0, 0)"/>
    <use xlink:href="#large-pointer" transform="rotate(146, 0, 0)"/>
    <use xlink:href="#large-pointer" transform="rotate(236, 0, 0)"/>
    <use xlink:href="#large-pointer" transform="rotate(326, 0, 0)"/>
    <circle cx="0" cy="0" r="100" fill="white"/>
    <image x="-82" y="-107" height="214" width="164" xlink:href="../png/people-center-l.png"/>
    <image x="240" y="-150" height="214" width="165" xlink:href="../png/beeNE-l.png" transform="rotate(-24)"/>
    <text x="300" y="-100">
        <tspan>I AM ASSESSING</tspan>
        <tspan x="300" dy="20">A PATIENT</tspan>
    </text>
    <image x="105" y="170" height="214" width="165" xlink:href="../png/beeSE-l.png"/>
    <text x="280" y="180">
        <tspan>I AM STARTING</tspan>
        <tspan x="280" dy="20">A RESEARCH</tspan>
        <tspan x="280" dy="20">PROJECT</tspan>
    </text>
    <image x="-350" y="80" height="214" width="165" xlink:href="../png/beeSW-l.png"/>
    <text x="-180" y="240">
        <tspan>I NEED</tspan>
        <tspan x="-180" dy="20">FOUNDATIONAL</tspan>
        <tspan x="-180" dy="20">INFORMATION</tspan>
    </text>
    <image x="-265" y="-376" height="214" width="165" xlink:href="../png/beeNW-l.png"/>
    <text x="-40" y="-300">
        <tspan>I AM COUNSELING</tspan>
        <tspan x="-40" dy="20">A PATIENT</tspan>
    </text>
</svg>
